# xmcd CD database file
#
# Track frame offsets:
#	150
#	27761
#	51341
#	79070
#	95902
#	110006
#	132289
#	146880
#	162775
#	176379
#	205579
#	233543
#
# Disc length: 3388 seconds
#
# Revision: 5
# Processed by: cddbd v1.5.1PL0 Copyright (c) Steve Scherf et al.
# Submitted via: CDex 1.51
#
DISCID=9e0d3a0c
DTITLE=Ari Ben - Chasing Angels
DYEAR=2004
DGENRE=Gospel and Religious
TTITLE0=Come Take My Hand
TTITLE1=Believe To Belong
TTITLE2=Least Of My Brethren
TTITLE3=Yahweh's Youth
TTITLE4=Good Shepherd
TTITLE5=Another Day
TTITLE6=He'll Lift You Up
TTITLE7=On Our Lips
TTITLE8=The Seal
TTITLE9=He's Been Good
TTITLE10=Chasing Angels
TTITLE11=Lullaby
EXTD=YEAR: 2004
EXTT0=
EXTT1=
EXTT2=
EXTT3=
EXTT4=
EXTT5=
EXTT6=
EXTT7=
EXTT8=
EXTT9=
EXTT10=
EXTT11=
PLAYORDER=
